<svg width="749" height="241" viewBox="0 0 749 241" fill="none" xmlns="http://www.w3.org/2000/svg">
<path fill-rule="evenodd" clip-rule="evenodd" d="M233.763 234.917C230.325 237.005 226.317 238.032 222.309 238.032C218.279 238.032 214.272 237.005 210.833 234.917C204.459 231.021 201.277 224.289 201.869 215.973V138.041C201.869 117.098 191.308 104.573 173.659 104.573C153.542 104.573 141.486 118.784 141.486 142.696V216.095C142.122 224.368 139.019 231.099 132.79 234.962C126.248 239.014 117.306 239.059 110.541 235.073C104.044 231.255 100.572 224.289 100.963 216.017V138.041C100.963 117.098 90.4577 104.573 72.7748 104.573C52.8481 104.573 40.959 118.784 40.959 142.696V216.095C41.5395 224.289 38.3579 231.021 31.9724 234.917C25.1292 239.092 15.9082 239.092 9.05383 234.917C2.6795 231.021 -0.513247 224.289 0.0672525 215.973V91.422C0.0672525 78.3831 8.14959 69.6421 20.195 69.6421C29.9295 69.6421 37.2416 75.3131 39.6529 84.3332C50.2581 73.0692 64.0339 67.3201 80.7232 67.3201C100.728 67.3201 115.62 73.9735 126.17 87.5929C138.773 74.1744 155.753 67.3201 176.662 67.3201C219.898 67.3201 242.738 92.7169 242.738 140.686V216.095C243.319 224.289 240.137 231.021 233.763 234.917Z" fill="white"/>
<path fill-rule="evenodd" clip-rule="evenodd" d="M397.74 173.491C395.686 179.363 392.538 184.554 388.33 189.287C380.493 198.374 370.089 202.951 357.418 202.951C332.099 202.951 313.668 182.355 313.668 153.921C313.668 125.533 332.099 104.891 357.418 104.891C370.089 104.891 380.493 109.502 388.33 118.6C396.758 127.966 400.855 139.543 400.855 153.921C400.855 161.133 399.828 167.63 397.74 173.491ZM417.745 92.285C400.967 75.5175 381.241 67.3235 357.418 67.3235C333.718 67.3235 313.311 75.7519 296.767 92.285C280.424 108.595 272.163 129.336 272.163 153.918C272.163 178.489 280.424 199.242 296.767 215.585C313.11 231.884 333.517 240.201 357.418 240.201C381.475 240.201 401.212 232.118 417.745 215.585C434.279 199.052 442.673 178.299 442.673 153.918C442.673 129.582 434.279 108.829 417.745 92.285Z" fill="white"/>
<path fill-rule="evenodd" clip-rule="evenodd" d="M569.243 218.414C569.243 228.963 559.118 237.202 546.168 237.202C502.05 237.202 484.055 220.144 484.055 178.404V108.186H476.698C464.53 108.186 456.916 101.253 456.916 90.0788C456.916 78.5023 464.53 71.2907 476.698 71.2907H484.055V46.4073C484.055 32.0288 494.336 24.5046 504.495 24.5046C514.654 24.5046 524.935 32.0288 524.935 46.4073V71.2907H546.827C558.649 71.2907 566.608 78.8595 566.608 90.0788C566.608 101.421 559.196 108.186 546.827 108.186H524.935V172.108C524.935 193.486 529.97 199.313 548.49 199.313C560.893 199.313 569.243 206.994 569.243 218.414Z" fill="white"/>
<path fill-rule="evenodd" clip-rule="evenodd" d="M738.854 234.963C732.111 239.06 723.057 239.06 716.315 234.963C709.907 231.1 706.636 224.369 707.149 216.018V140.687C707.149 118.394 695.45 104.574 676.629 104.574C654.927 104.574 642.479 119.421 642.479 145.331V216.097C643.082 224.291 639.89 231.022 633.504 234.918C630.088 237.006 626.058 238.033 622.05 238.033C618.032 238.033 614.013 237.006 610.585 234.918C604.2 231.022 601.018 224.291 601.61 215.974V21.9529C601.018 13.759 604.2 7.02739 610.585 3.13135C617.44 -1.04378 626.65 -1.04378 633.504 3.13135C639.89 7.02739 643.082 13.759 642.479 22.0757V80.628C653.074 71.8089 666.113 67.3212 681.272 67.3212C721.796 67.3212 748.019 96.1452 748.019 140.687V216.097C748.499 224.369 745.261 231.1 738.854 234.963Z" fill="white"/>
</svg>
